# xmcd CD database file
#
# Track frame offsets:
#	150
#	12458
#	26284
#	38741
#	50430
#	65160
#	78504
#	92694
#	106356
#	120312
#	132878
#	147132
#	162407
#	177050
#	189912
#	203613
#	216447
#	229738
#
# Disc length: 3244 seconds
#
# Revision: 0
# Processed by: cddbd v1.4PL0 Copyright (c) Steve Scherf et al.
# Submitted via: CDex 1.40Release
#
DISCID=ee0caa12
DTITLE=Billy Holiday - Fine and Mellow
DYEAR=2000
DGENRE=Blues
TTITLE0=I've Got A Date With A Dream
TTITLE1=Everyboy's Laughing
TTITLE2=Here It Is Tomorrow Again
TTITLE3=Say It With A Kiss
TTITLE4=They Say
TTITLE5=That's All I Ask Of You
TTITLE6=What Shall I Say?
TTITLE7=It's Easy To Blame The Weather
TTITLE8=More Than You Know
TTITLE9=Sugar
TTITLE10=Strange Fruit
TTITLE11=Yesterdays
TTITLE12=Fine And Mellow
TTITLE13=I Gotta Right To Sing The Blues
TTITLE14=Some Other Spring
TTITLE15=Them There Eyes
TTITLE16=Swing Brother, Swing
TTITLE17=Night And Day
EXTD=YEAR: 2000 ID3G: 0
EXTT0=
EXTT1=
EXTT2=
EXTT3=
EXTT4=
EXTT5=
EXTT6=
EXTT7=
EXTT8=
EXTT9=
EXTT10=
EXTT11=
EXTT12=
EXTT13=
EXTT14=
EXTT15=
EXTT16=
EXTT17=
PLAYORDER=
